<svg xmlns="http://www.w3.org/2000/svg" fill-rule="evenodd" stroke-linejoin="round" stroke-miterlimit="2" clip-rule="evenodd" viewBox="0 0 6000 6000"><path fill="#eee" d="m1819.6 810.164 3 15.378 22.23-44.159-50.51 11.616 11.43 4.836-28.89 19.732-98.11-77.577a9.008 9.008 0 0 0-12.7 1.549l-35.45 45.796-24.14-6.106a9.014 9.014 0 0 0-9.06 2.885l-39 45.739c-3.22 3.778-2.77 9.462 1.01 12.683 3.78 3.222 9.47 2.77 12.69-1.008l35.37-41.483 24.42 6.18a9.019 9.019 0 0 0 9.33-3.215l33.5-43.268 96.17 76.044a9.003 9.003 0 0 0 10.66.372l38.05-25.994Z" transform="rotate(-22.828 -4481.463 41856.984) scale(10.50037)"/><path fill="#eee" d="M1393.83 1065.79c-3.81-23.99-24.98-28.25-44.55-36.59-17.5-7.47-35.78-18.04-49.31-31.484-16.55-16.436-24.15-40.257-10.32-60.712 5.18-7.665 12.03-14.326 19.65-19.552 6.08-4.167 12.83-7.159 19.94-9.081 57.85-15.661 71.16 66.923 125.86 60.277 33.45-4.064 55.12-34.513 74.31-58.83 18.33-23.231 40.08-44.387 67.98-55.561 32.15-12.871 62.13 6.279 92.29 16.317 17.64 5.871 36.02 8.6 54.61 7.54 44.33-2.526 43.93-62.108 84.52-81.778 82.91-40.182 125.84 53.124 57.91 120.34-19.47 19.267-46.74 33.738-61.63 57.383-17.95 28.521-13.66 58.011-10.13 89.781l-421.13 1.95Z" transform="matrix(7.01856 0 0 8.50777 -8239.583 -4615.556)"/><g transform="matrix(-7.41837 0 0 7.41837 15154.955 -3451.232)"><path fill="#6993a4" d="M1826.95 1063.05c.53-6.86 2.82-13.69 4.99-20.17 5.79-17.25 14.13-32.74 28.91-43.864 7.18-5.402 16.92-10.461 26.23-9.185 4.41.603 9.33 3.149 9.11 8.246-.38 9.113-11.31 16.233-17.99 20.663-16.32 10.83-46.62 22.56-51.25 44.31Z"/><clipPath id="a"><path d="M1826.95 1063.05c.53-6.86 2.82-13.69 4.99-20.17 5.79-17.25 14.13-32.74 28.91-43.864 7.18-5.402 16.92-10.461 26.23-9.185 4.41.603 9.33 3.149 9.11 8.246-.38 9.113-11.31 16.233-17.99 20.663-16.32 10.83-46.62 22.56-51.25 44.31Z"/></clipPath><g clip-path="url(#a)"><path fill="#477282" d="M1855.6 999.788c1.04 2.592.6 5.662.06 8.312-.48 2.39-1.15 4.82-2.38 6.94-4.46 7.66-13.84 10.88-22.14 12.14-3.75.57-9.76.95-12.7-2.13-2.02-2.12-.56-4.16-.44-6.54.03-.63-.47-.78-1-.62-2.87.84-5.33 4.93-6.87 7.2-4.62 6.85-7.57 15.14-8.79 23.29-.43 2.87-1.07 6.88.78 9.42 2.32 3.19 7.6.75 10.29-.51.78-.37 1.56-.76 2.33-1.16.89-.46 1.78-.94 2.65-1.42 1.37-.75 2.71-1.55 4.04-2.35 8.13-4.86 46.98-25.05 52.1-34.6 5.34-9.97-8.7-14.59-17.93-17.972Z" transform="translate(-337.245 -216.062) scale(1.20146)"/></g></g><g transform="translate(-11913.796 -3451.232) scale(7.41837)"><path fill="#6993a4" d="M1826.95 1063.05c.53-6.86 2.82-13.69 4.99-20.17 5.79-17.25 14.13-32.74 28.91-43.864 7.18-5.402 16.92-10.461 26.23-9.185 4.41.603 9.33 3.149 9.11 8.246-.38 9.113-11.31 16.233-17.99 20.663-16.32 10.83-46.62 22.56-51.25 44.31Z"/><clipPath id="b"><path d="M1826.95 1063.05c.53-6.86 2.82-13.69 4.99-20.17 5.79-17.25 14.13-32.74 28.91-43.864 7.18-5.402 16.92-10.461 26.23-9.185 4.41.603 9.33 3.149 9.11 8.246-.38 9.113-11.31 16.233-17.99 20.663-16.32 10.83-46.62 22.56-51.25 44.31Z"/></clipPath><g clip-path="url(#b)"><path fill="#477282" d="M1855.6 999.788c1.04 2.592.6 5.662.06 8.312-.48 2.39-1.15 4.82-2.38 6.94-4.46 7.66-13.84 10.88-22.14 12.14-3.75.57-9.76.95-12.7-2.13-2.02-2.12-.56-4.16-.44-6.54.03-.63-.47-.78-1-.62-2.87.84-5.33 4.93-6.87 7.2-4.62 6.85-7.57 15.14-8.79 23.29-.43 2.87-1.07 6.88.78 9.42 2.32 3.19 7.6.75 10.29-.51.78-.37 1.56-.76 2.33-1.16.89-.46 1.78-.94 2.65-1.42 1.37-.75 2.71-1.55 4.04-2.35 8.13-4.86 46.98-25.05 52.1-34.6 5.34-9.97-8.7-14.59-17.93-17.972Z" transform="translate(-337.245 -216.062) scale(1.20146)"/></g></g><g transform="matrix(-9.84099 0 0 9.57458 19600.785 -5767.601)"><path fill="#6993a4" d="M1830.61 1062.95c-.26-10.01-.87-20.78.25-31.11 1.07-9.78 3.69-19.17 9.96-26.97 6.79-8.459 16.47-13.765 25.14-19.935 9.65-6.873 18.1-14.74 21.35-27.711.99-3.91 1.36-7.975.98-11.995-.41-4.286-1.79-8.419-3.64-12.283-.89-1.862-3.09-2.627-4.9-1.709-1.81.918-2.56 3.175-1.66 5.036 1.46 3.054 2.59 6.308 2.92 9.696.3 3.143-.01 6.319-.78 9.376-2.78 11.05-10.21 17.553-18.44 23.408-9.21 6.558-19.4 12.339-26.62 21.327-14.03 17.48-12.43 41.85-11.88 63.07.06 2.08 1.74 3.72 3.76 3.66 2.02-.05 3.61-1.78 3.56-3.86Z"/><clipPath id="c"><path d="M1830.61 1062.95c-.26-10.01-.87-20.78.25-31.11 1.07-9.78 3.69-19.17 9.96-26.97 6.79-8.459 16.47-13.765 25.14-19.935 9.65-6.873 18.1-14.74 21.35-27.711.99-3.91 1.36-7.975.98-11.995-.41-4.286-1.79-8.419-3.64-12.283-.89-1.862-3.09-2.627-4.9-1.709-1.81.918-2.56 3.175-1.66 5.036 1.46 3.054 2.59 6.308 2.92 9.696.3 3.143-.01 6.319-.78 9.376-2.78 11.05-10.21 17.553-18.44 23.408-9.21 6.558-19.4 12.339-26.62 21.327-14.03 17.48-12.43 41.85-11.88 63.07.06 2.08 1.74 3.72 3.76 3.66 2.02-.05 3.61-1.78 3.56-3.86Z"/></clipPath><g clip-path="url(#c)"><path fill="#477282" d="M1847.02 924.905c5.25 5.935 2.64 36.785 5.98 43.864.79 1.693 1.42 7.919 3.45 8.598 1.57.522 3.33-1.597 4.19-2.574 3.06-3.452 5.16-7.904 7.03-12.068 4.85-10.735 8.71-23.987 7.13-35.85-.26-2.003-.72-4.053-1.52-5.914-3.52-8.121-12.71-5.808-18.62-2.034-2.73 1.749-5.23 3.807-7.64 5.978Z" transform="matrix(.89406 -.14872 .1447 .91894 83.332 350.673)"/></g></g><g transform="matrix(-11.79443 0 0 11.79443 23252.44 -7842.176)"><circle cx="1873.49" cy="922.267" r="28.654" fill="#f29f05"/><clipPath id="d"><circle cx="1873.49" cy="922.267" r="28.654"/></clipPath><g clip-path="url(#d)"><path fill="#d98a00" d="M1078.06 1036.13c3.78 18.66 2.57 41.21-14.47 53.1a42.774 42.774 0 0 1-10.56 5.33c-9.42 3.22-20.72 3.17-29.76-1.21-2.66-1.28-5.19-2.91-7.34-4.94-1.35-1.27-2.69-3.39-4.37-4.22-1.67-.83-2.13 1.29-2.03 2.49.36 4.52 3.42 9 6.17 12.4 10.58 13.09 28.05 16.93 43.83 11.83 27.21-8.79 41.45-49.94 18.53-74.78Z" transform="translate(1082.17 116.823) scale(.75569)"/></g></g><path fill="#fff" fill-rule="nonzero" d="M1754.55 918.17c0-2.929-.81-5.261-2.44-6.993-1.62-1.733-4.38-3.332-8.28-4.797-3.89-1.465-7.25-2.921-10.07-4.368-2.83-1.447-5.25-3.108-7.27-4.984a20.055 20.055 0 0 1-4.71-6.619c-1.13-2.536-1.69-5.555-1.69-9.057 0-6.038 1.93-10.986 5.79-14.845 3.86-3.859 8.98-6.109 15.38-6.753v-11.468h8.57v11.629c6.33.893 11.28 3.528 14.85 7.905 3.57 4.377 5.36 10.049 5.36 17.016h-15.49c0-4.288-.89-7.494-2.65-9.62-1.77-2.126-4.14-3.189-7.1-3.189-2.93 0-5.2.831-6.81 2.492-1.61 1.662-2.41 3.957-2.41 6.887 0 2.715.78 4.895 2.36 6.538 1.57 1.644 4.49 3.323 8.76 5.038 4.27 1.715 7.78 3.332 10.53 4.85 2.75 1.518 5.07 3.233 6.97 5.145a19.971 19.971 0 0 1 4.34 6.538c1 2.448 1.5 5.297 1.5 8.548 0 6.074-1.9 11.005-5.68 14.792-3.79 3.787-9.01 6.02-15.65 6.699v10.665h-8.52v-10.612c-7.33-.786-13-3.385-17.02-7.797-4.02-4.413-6.03-10.281-6.03-17.605h15.49c0 4.251 1.01 7.511 3.03 9.78 2.02 2.269 4.92 3.403 8.71 3.403 3.14 0 5.62-.83 7.45-2.492 1.82-1.661 2.73-3.903 2.73-6.726Z" transform="rotate(-30 2802.97 15152.02) scale(4.2576)"/><g transform="translate(-9224.137 -3644.897) scale(7.6013)"><g transform="rotate(33.141 1844.561 805.259)"><path fill="#fad8ba" d="M1835.13 906.865c-48.02 4.996-109.91 75.164-109.91 75.164l-111.81-35.198s-8.45-19.823-11.38-20.017c-9.62-.636-5.72 15.8-5.72 15.8s-35.84 2.099-42.98 7.332c-14.12 10.353 28.71 15.626 28.71 15.626s86.24 77.688 129.09 83.308c42.85 5.62 104.83-36.28 127.99-49.567 42.59-24.434 23.91-95.351-3.99-92.448Z"/><clipPath id="e"><path d="M1835.13 906.865c-48.02 4.996-109.91 75.164-109.91 75.164l-111.81-35.198s-8.45-19.823-11.38-20.017c-9.62-.636-5.72 15.8-5.72 15.8s-35.84 2.099-42.98 7.332c-14.12 10.353 28.71 15.626 28.71 15.626s86.24 77.688 129.09 83.308c42.85 5.62 104.83-36.28 127.99-49.567 42.59-24.434 23.91-95.351-3.99-92.448Z"/></clipPath><g clip-path="url(#e)"><path fill="#d7b699" d="M1537.99 798.378c7.47 7.384 29.82 113.115 98.95 142.186 15.28 6.424 43.13-4.058 59.69-4.098 8.05-.02 17.39-2.711 25.29-1.221 6.42 1.209 10.22 7.426 11.2 13.482 4.9 30.276-33.5 39.963-55.98 40.358-5.26.092-10.52-.028-15.76-.522-5.72-.54-11.45-1.312-17.09-2.424-58.29-11.493-91.82-130.518-106.3-187.761Z" transform="rotate(-33.141 1844.57 805.26)"/><path fill="#f25c05" d="M1770.03 929.806c.03 15.833 9.18 31.113 17.31 44.099 5.97 9.545 12 18.711 21.03 25.592 7.91 6.023 18 12.033 27.99 13.643 20.52 3.29 35.44-16.151 43.08-32.569 13.76-29.563 12.02-76.47-24.3-88.443-5.63-1.857-11.68-2.754-17.61-2.677-11.09.145-57.55 35.774-67.5 40.355Z" transform="translate(-13.787 9.876)"/></g></g><path fill="#f25c05" d="M1840.6 907.032c-22.28-22.285-117.14-63.148-125.2-1.253-10.54 80.918-49.87 159.211-49.87 159.211l171.56-1.18s25.78-134.493 3.51-156.778Z"/><clipPath id="f"><path d="M1840.6 907.032c-22.28-22.285-117.14-63.148-125.2-1.253-10.54 80.918-49.87 159.211-49.87 159.211l171.56-1.18s25.78-134.493 3.51-156.778Z"/></clipPath><g clip-path="url(#f)"><path fill="#d23f00" d="M1852.09 905.159c-8.26 39.334-21 84.524-52.47 111.611-12.1 10.42-31.33 12.81-47.25 27.47-27 24.85-41.85 13.82-64.14 5.66-10.85-3.96-24.77-9.32-36.29-7.88-15.76 1.98-11.21 14.53-2.95 25.09 6.98 8.9 17.76 14.05 28.13 17.88 21.09 7.8 44.17 11.07 66.54 12.03 31.19 1.33 65.72-1.25 93.68-16.4 57.17-30.99 37.74-119.165 14.75-175.461Z"/></g><g transform="matrix(-1.24406 0 0 1.24406 3590.29 -130.708)"><path fill="#fad8ba" d="m1463.74 798.269-20.05.291c2.78 7.537 1.54 11.379-1.32 18.449 25.5 49.252 32.07 32.554 23.43.453-3.38-4.809-4.5-10.952-2.06-19.193Z"/><clipPath id="g"><path d="m1463.74 798.269-20.05.291c2.78 7.537 1.54 11.379-1.32 18.449 25.5 49.252 32.07 32.554 23.43.453-3.38-4.809-4.5-10.952-2.06-19.193Z"/></clipPath><g clip-path="url(#g)"><path fill="#d7b699" d="M1476.62 834.969c-3.25 4.715-8.83 6.632-14.35 5.478-3.18-.661-6.21-2.666-6.89-6.053-.69-3.45 1.44-6.188 4.33-7.834 4.51-2.564 12.83 5.114 16.91 8.409Z" transform="translate(-197.536 -130.504) scale(1.12652)"/><path fill="#d7b699" d="M673.19 1001.35c1.085 8.31 2.281 16.74 1.722 25.13-.29 4.36 5.454 24.62-3.631 26.91-7.912 1.99-9.304 4.53-4.045 9.22 5.167 4.6 12.129 4.42 16.349-1.31 2.487-3.37 3.772-7.64 4.527-11.71 1.659-8.96-13.035-39.4-14.922-48.24Z" transform="translate(706.7 -342.261) scale(1.12652)"/></g></g><path fill="#fad8ba" d="M1454.31 765.662c9.51 0 17.23 10.205 17.23 22.775 0 12.569-1.65 23.474-11.15 23.474-9.51 0-23.3-10.905-23.3-23.474 0-12.57 7.72-22.775 17.22-22.775Z" transform="matrix(-1.01424 0 0 1.01424 3256.06 55.886)"/><path fill="#03222f" d="M1781.15 849.984c-2.59 3.406-7.66 4.481-11.65 4.348-3.57-.118-7.31-1.01-10.52-2.555-8.94-4.295-7.83-14.949-3.9-22.489 3.49-6.69 9.49-10.692 16.66-6.588 1.38.793 2.44 1.913 3.45 3.133 2.89-1.192 6.42-1.024 9.45-.696 2.71.292 5.59.754 8.13 1.769 11.41 4.563 13.97 17.29 10.91 27.948-1.31 4.545-3.79 9.195-7.44 12.291-1.64 1.387-3.87 2.749-6.13 2.31-5.83-1.13-.08-6.702.55-9.511.31-1.37.28-3.657-1.35-4.185-.96-.314-1.9.109-2.64.719-2 1.65-2.99 4.261-5.16 5.771-1.94 1.351-2.53-.274-2-1.981.18-.582.39-1.151.61-1.721.43-1.14.89-7.35 1.03-8.563Z"/><path fill="#023341" fill-rule="nonzero" d="m1558.27 943.372-13.28-16.552s36.38-9.622 43.09-13.8c9.58-5.96 21.94-9.714 37.09-11.262 15.16-1.547 26.12-3.792 32.89-6.733 6.78-2.941 12.23-7.266 16.35-12.976 12.44-17.231 10.7-31.587-5.2-43.068-7.55-5.446-15.26-7.487-23.15-6.123-7.89 1.364-14.87 6.051-20.97 14.061l-44.35-32.014-13.3-17.154s48.62-13.254 65.2-14.942c20.33-2.07 41.21 4.623 62.62 20.078 21.62 15.602 34.62 32.934 39 51.995 4.39 19.062-.3 38.126-14.06 57.192-6.26 8.667-14.1 15.451-23.53 20.352-9.43 4.902-22.38 8.547-38.83 10.936l-20.89 2.834c-13.12 1.85-23.85 7.366-32.19 16.549l-7.34 8.888-39.15-28.261ZM1519.94 987.124c4.93-6.832 11.32-10.791 19.16-11.877 7.84-1.087 15.38.982 22.62 6.207 7.24 5.226 11.57 11.73 13.01 19.516 1.44 7.78-.31 15.09-5.24 21.92-4.86 6.73-11.13 10.65-18.84 11.76-7.7 1.11-15.27-1.02-22.71-6.4-7.45-5.37-11.85-11.88-13.23-19.54-1.37-7.66.37-14.857 5.23-21.586Z"/><path fill="#a6d2e4" fill-rule="nonzero" d="M1508.53 846.644c0-1.354.17-2.433.5-3.235.33-.803.93-1.594 1.8-2.372.88-.779 1.46-1.412 1.75-1.901.29-.488.44-1.003.44-1.545 0-1.635-.76-2.452-2.27-2.452-.71 0-1.29.22-1.72.66-.43.44-.65 1.047-.67 1.821h-4.21c.02-1.847.62-3.293 1.79-4.338 1.18-1.044 2.78-1.567 4.81-1.567 2.05 0 3.64.496 4.78 1.487 1.13.992 1.69 2.392 1.69 4.2 0 .823-.18 1.599-.55 2.329-.36.73-1.01 1.54-1.93 2.43l-1.17 1.117c-.74.706-1.16 1.533-1.26 2.481l-.06.885h-3.72Zm-.42 4.454c0-.648.22-1.183.66-1.603.44-.421 1.01-.631 1.69-.631.69 0 1.25.21 1.69.631.44.42.66.955.66 1.603 0 .638-.21 1.165-.64 1.581-.43.416-1 .624-1.71.624-.7 0-1.27-.208-1.7-.624-.43-.416-.65-.943-.65-1.581Z" transform="rotate(35.822 26174.605 -21984.362) scale(13.00111)"/><path fill="#fad8ba" d="M1835.13 906.865c-48.02 4.996-109.91 75.164-109.91 75.164l-111.81-35.198s-8.45-19.823-11.38-20.017c-9.62-.636-5.72 15.8-5.72 15.8s-29.63-2.809-34.8-1.012c-16.54 5.759 20.53 23.97 20.53 23.97s86.24 77.688 129.09 83.308c42.85 5.62 104.83-36.28 127.99-49.567 42.59-24.434 23.91-95.351-3.99-92.448Z"/><clipPath id="h"><path d="M1835.13 906.865c-48.02 4.996-109.91 75.164-109.91 75.164l-111.81-35.198s-8.45-19.823-11.38-20.017c-9.62-.636-5.72 15.8-5.72 15.8s-29.63-2.809-34.8-1.012c-16.54 5.759 20.53 23.97 20.53 23.97s86.24 77.688 129.09 83.308c42.85 5.62 104.83-36.28 127.99-49.567 42.59-24.434 23.91-95.351-3.99-92.448Z"/></clipPath><g clip-path="url(#h)"><path fill="#d7b699" d="M1778.7 945.702c-2.12 10.352-.59 23.05 3.52 32.641 2.91 6.765 6.42 13.26 9.27 20.039 1.17 2.778 3.05 6.418 2.12 9.518-1.08 3.6-5.25 6.46-8.24 8.3-2.7 1.66-5.6 3-8.57 4.08-5.02 1.83-10.28 2.99-15.52 3.99-8.24 1.57-16.68 2.41-25.05 2.93-12.71.78-25.7.67-38.33-1.17-28.51-4.16-55.1-15.62-78.94-31.488-9.12-6.073-18.1-12.432-26.8-19.098-2.08-1.597-9.92-9.248-8.59-2.024 1.15 6.275 4.78 12.419 8.02 17.784 6.77 11.206 14.78 21.566 24.17 30.696 8.82 8.58 18.77 16.04 29.3 22.37 49.11 29.5 109.07 25.22 159.09.14 22.62-11.34 47.52-27.5 58.19-51.5 3.34-7.531-84.3-39.055-83.64-47.208Z"/><path fill="#f25c05" d="M1770.03 929.806c.03 15.833 9.18 31.113 17.31 44.099 5.97 9.545 12 18.711 21.03 25.592 7.91 6.023 18 12.033 27.99 13.643 20.52 3.29 35.44-16.151 43.08-32.569 13.76-29.563 12.02-76.47-24.3-88.443-5.63-1.857-11.68-2.754-17.61-2.677-11.09.145-57.55 35.774-67.5 40.355Z"/></g></g><path fill="#03222f" d="M1358.95 1066.85h457.854v8.317H1358.95z" transform="matrix(7.41431 0 0 2.68032 -8615.941 1576.794)"/><path fill="#03222f" d="M1358.95 1066.85h457.854v8.317H1358.95z" transform="matrix(.7944 0 0 2.84851 -96.854 1400.163)"/><path fill="#023341" d="M1604.76 801.182c0-21.481-29.58-43.441-51.06-43.441h-144.57c-21.48 0-38.92 17.44-38.92 38.921v77.841c0 21.481 17.44 38.921 38.92 38.921v48.67c0 2.872 18.14 18.686 20.07 16.554 17.57-19.48 40.13-65.224 40.13-65.224h84.37c21.48 0 38.92-17.44 38.92-38.921l12.14-73.321Z" transform="matrix(-5.913 0 0 5.913 10431.182 -2943.3)"/><path fill="#6993a4" d="M1592.62 796.662c0-21.481-17.44-38.921-38.92-38.921h-144.57c-21.48 0-38.92 17.44-38.92 38.921v77.841c0 21.481 17.44 38.921 38.92 38.921v48.67a6.94 6.94 0 0 0 4.45 6.477 6.953 6.953 0 0 0 7.65-1.828c17.57-19.481 48.1-53.319 48.1-53.319h84.37c21.48 0 38.92-17.44 38.92-38.921v-77.841Z" transform="matrix(-5.913 0 0 5.913 10350.208 -2881.482)"/><path fill="#fff" d="M1469.51 1161.55c-44.95 0-81.38 36.43-81.38 81.37 0 19.27 6.84 37.92 19.3 52.62l46.56-39.46a20.343 20.343 0 0 1-4.83-13.16c0-11.23 9.11-20.34 20.35-20.34v-61.03ZM1418.37 1306.23a81.418 81.418 0 0 0 51.14 18.07c43.53 0 79.35-34.26 81.29-77.75l-40.65-1.81c-.97 21.74-18.88 38.87-40.64 38.87-9.31 0-18.33-3.19-25.57-9.03l-25.57 31.65ZM1549.57 1228.37c-6.06-33.35-32.16-59.45-65.51-65.51l-5.17 28.44c21.5 3.91 38.33 20.74 42.24 42.24l28.44-5.17Z" transform="rotate(-47.224 448.787 8026.31) scale(3.72494)"/><path fill="#fff" d="M1470.18 740.742a5.531 5.531 0 0 0-5.53-5.522h-30.4c-1.46 0-2.87.582-3.9 1.618a5.504 5.504 0 0 0-1.62 3.904v.125c0 1.464.58 2.869 1.62 3.904a5.508 5.508 0 0 0 3.9 1.618h30.4a5.531 5.531 0 0 0 5.53-5.522v-.125Z" transform="translate(-6833.618 -2608.426) scale(6.01148)"/><path fill="#fff" d="M1470.18 740.802c0-1.48-.3-2.9-.83-3.947-.53-1.047-1.25-1.635-2-1.635h-35.79c-.75 0-1.47.588-2 1.635-.53 1.047-.83 2.467-.83 3.947v.005c0 1.48.3 2.9.83 3.947.53 1.047 1.25 1.635 2 1.635h35.79c.75 0 1.47-.588 2-1.635.53-1.047.83-2.467.83-3.947v-.005Z" transform="matrix(9.76078 0 0 4.94317 -12190.4 -1658.049)"/><path fill="#fff" d="M1470.18 740.802c0-1.48-.3-2.9-.83-3.947-.53-1.047-1.25-1.635-2-1.635h-35.79c-.75 0-1.47.588-2 1.635-.53 1.047-.83 2.467-.83 3.947v.005c0 1.48.3 2.9.83 3.947.53 1.047 1.25 1.635 2 1.635h35.79c.75 0 1.47-.588 2-1.635.53-1.047.83-2.467.83-3.947v-.005Z" transform="matrix(9.76078 0 0 4.94317 -12190.4 -1565.225)"/><path fill="#fff" d="M1470.18 740.802c0-1.48-.3-2.9-.83-3.947-.53-1.047-1.25-1.635-2-1.635h-35.79c-.75 0-1.47.588-2 1.635-.53 1.047-.83 2.467-.83 3.947v.005c0 1.48.3 2.9.83 3.947.53 1.047 1.25 1.635 2 1.635h35.79c.75 0 1.47-.588 2-1.635.53-1.047.83-2.467.83-3.947v-.005Z" transform="matrix(9.76078 0 0 4.94317 -12190.4 -1472.408)"/></svg>